# WaveFront *.obj file (generated by Autodesk ATF)

mtllib Cuadrado.mtl

g Body1

v 0.452842 0.555351 0.000000
v -0.397158 0.555351 0.000000
v -0.397158 0.555351 0.100000
v 0.452842 0.555351 0.100000
v 0.577842 0.430351 0.000000
v 0.573582 0.462704 0.000000
v 0.561095 0.492851 0.000000
v 0.541230 0.518740 0.000000
v 0.515342 0.538605 0.000000
v 0.485194 0.551092 0.000000
v 0.485194 0.551092 0.100000
v 0.515342 0.538605 0.100000
v 0.541230 0.518740 0.100000
v 0.561095 0.492851 0.100000
v 0.573582 0.462704 0.100000
v 0.577842 0.430351 0.100000
v 0.577842 -0.419649 0.000000
v 0.577842 -0.419649 0.100000
v 0.452842 -0.544649 0.000000
v 0.485194 -0.540389 0.000000
v 0.515342 -0.527902 0.000000
v 0.541230 -0.508037 0.000000
v 0.561095 -0.482149 0.000000
v 0.573582 -0.452001 0.000000
v 0.573582 -0.452001 0.100000
v 0.561095 -0.482149 0.100000
v 0.541230 -0.508037 0.100000
v 0.515342 -0.527902 0.100000
v 0.485194 -0.540389 0.100000
v 0.452842 -0.544649 0.100000
v -0.397158 -0.544649 0.000000
v -0.397158 -0.544649 0.100000
v -0.522158 -0.419649 0.000000
v -0.517899 -0.452001 0.000000
v -0.505411 -0.482149 0.000000
v -0.485547 -0.508037 0.000000
v -0.459658 -0.527902 0.000000
v -0.429511 -0.540389 0.000000
v -0.429511 -0.540389 0.100000
v -0.459658 -0.527902 0.100000
v -0.485547 -0.508037 0.100000
v -0.505411 -0.482149 0.100000
v -0.517899 -0.452001 0.100000
v -0.522158 -0.419649 0.100000
v -0.522158 0.430351 0.000000
v -0.522158 0.430351 0.100000
v -0.429511 0.551092 0.000000
v -0.459658 0.538605 0.000000
v -0.485547 0.518740 0.000000
v -0.505411 0.492851 0.000000
v -0.517899 0.462704 0.000000
v -0.517899 0.462704 0.100000
v -0.505411 0.492851 0.100000
v -0.485547 0.518740 0.100000
v -0.459658 0.538605 0.100000
v -0.429511 0.551092 0.100000
vt -0.000000 0.000000 0.000000
vt 0.850000 0.000000 0.000000
vt -0.000000 0.100000 0.000000
vt 0.850000 0.100000 0.000000
vt -0.100000 0.000000 0.000000
vt -0.000000 0.000000 0.000000
vt -0.100000 0.032725 0.000000
vt -0.000000 0.032725 0.000000
vt -0.100000 0.065450 0.000000
vt -0.000000 0.065450 0.000000
vt -0.100000 0.098175 0.000000
vt -0.000000 0.098175 0.000000
vt -0.100000 0.130900 0.000000
vt -0.000000 0.130900 0.000000
vt -0.100000 0.163625 0.000000
vt -0.000000 0.163625 0.000000
vt -0.100000 0.196350 0.000000
vt -0.000000 0.196350 0.000000
vt 0.000000 0.000000 0.000000
vt 0.850000 0.000000 0.000000
vt 0.000000 0.100000 0.000000
vt 0.850000 0.100000 0.000000
vt -0.100000 -0.000000 0.000000
vt -0.000000 0.000000 0.000000
vt -0.100000 0.032725 0.000000
vt -0.000000 0.032725 0.000000
vt -0.100000 0.065450 0.000000
vt -0.000000 0.065450 0.000000
vt -0.100000 0.098175 0.000000
vt -0.000000 0.098175 0.000000
vt -0.100000 0.130900 0.000000
vt -0.000000 0.130900 0.000000
vt -0.100000 0.163625 0.000000
vt -0.000000 0.163625 0.000000
vt -0.100000 0.196350 0.000000
vt -0.000000 0.196350 0.000000
vt 0.000000 0.000000 0.000000
vt 0.850000 0.000000 0.000000
vt 0.000000 0.100000 0.000000
vt 0.850000 0.100000 0.000000
vt -0.100000 0.000000 0.000000
vt -0.000000 0.000000 0.000000
vt -0.100000 0.032725 0.000000
vt -0.000000 0.032725 0.000000
vt -0.100000 0.065450 0.000000
vt -0.000000 0.065450 0.000000
vt -0.100000 0.098175 0.000000
vt -0.000000 0.098175 0.000000
vt -0.100000 0.130900 0.000000
vt -0.000000 0.130900 0.000000
vt -0.100000 0.163625 0.000000
vt -0.000000 0.163625 0.000000
vt -0.100000 0.196350 0.000000
vt -0.000000 0.196350 0.000000
vt -0.000000 0.000000 0.000000
vt 0.850000 0.000000 0.000000
vt -0.000000 0.100000 0.000000
vt 0.850000 0.100000 0.000000
vt -0.100000 0.000000 0.000000
vt -0.000000 0.000000 0.000000
vt -0.100000 0.032725 0.000000
vt -0.000000 0.032725 0.000000
vt -0.100000 0.065450 0.000000
vt -0.000000 0.065450 0.000000
vt -0.100000 0.098175 0.000000
vt -0.000000 0.098175 0.000000
vt -0.100000 0.130900 0.000000
vt -0.000000 0.130900 0.000000
vt -0.100000 0.163625 0.000000
vt -0.000000 0.163625 0.000000
vt -0.100000 0.196350 0.000000
vt -0.000000 0.196350 0.000000
vt -0.457352 0.545741 0.000000
vt -0.487500 0.533253 0.000000
vt -0.425000 0.550000 0.000000
vt -0.513388 0.513388 0.000000
vt -0.533253 0.487500 0.000000
vt -0.545741 0.457352 0.000000
vt -0.550000 0.425000 0.000000
vt 0.550000 -0.425000 0.000000
vt 0.425000 -0.550000 0.000000
vt 0.457352 -0.545741 0.000000
vt -0.550000 -0.425000 0.000000
vt -0.425000 -0.550000 0.000000
vt -0.457352 -0.545741 0.000000
vt -0.487500 -0.533253 0.000000
vt -0.513388 -0.513388 0.000000
vt -0.533253 -0.487500 0.000000
vt -0.545741 -0.457352 0.000000
vt 0.487500 -0.533253 0.000000
vt 0.513388 -0.513388 0.000000
vt 0.533253 -0.487500 0.000000
vt 0.545741 -0.457352 0.000000
vt 0.550000 0.425000 0.000000
vt 0.425000 0.550000 0.000000
vt 0.545741 0.457352 0.000000
vt 0.533253 0.487500 0.000000
vt 0.513388 0.513388 0.000000
vt 0.487500 0.533253 0.000000
vt 0.457352 0.545741 0.000000
vt 0.545741 0.457352 0.000000
vt 0.425000 0.550000 0.000000
vt 0.550000 0.425000 0.000000
vt -0.425000 0.550000 0.000000
vt 0.550000 -0.425000 0.000000
vt -0.550000 0.425000 0.000000
vt 0.425000 -0.550000 0.000000
vt -0.550000 -0.425000 0.000000
vt -0.425000 -0.550000 0.000000
vt -0.457352 -0.545741 0.000000
vt -0.487500 -0.533253 0.000000
vt -0.513388 -0.513388 0.000000
vt -0.533253 -0.487500 0.000000
vt -0.545741 -0.457352 0.000000
vt 0.533253 0.487500 0.000000
vt 0.513388 0.513388 0.000000
vt 0.487500 0.533253 0.000000
vt 0.457352 0.545741 0.000000
vt -0.457352 0.545741 0.000000
vt -0.487500 0.533253 0.000000
vt -0.513388 0.513388 0.000000
vt -0.533253 0.487500 0.000000
vt -0.545741 0.457352 0.000000
vt 0.457352 -0.545741 0.000000
vt 0.487500 -0.533253 0.000000
vt 0.513388 -0.513388 0.000000
vt 0.533253 -0.487500 0.000000
vt 0.545741 -0.457352 0.000000
vn 0.000000 1.000000 0.000000
vn 0.000000 1.000000 0.000000
vn 0.000000 1.000000 0.000000
vn 0.000000 1.000000 0.000000
vn 1.000000 -0.000000 -0.000000
vn 1.000000 -0.000000 -0.000000
vn 0.965926 0.258819 -0.000000
vn 0.965926 0.258819 -0.000000
vn 0.866025 0.500000 -0.000000
vn 0.866025 0.500000 -0.000000
vn 0.707107 0.707107 -0.000000
vn 0.707107 0.707107 -0.000000
vn 0.500000 0.866025 -0.000000
vn 0.500000 0.866025 -0.000000
vn 0.258819 0.965926 -0.000000
vn 0.258819 0.965926 -0.000000
vn 1.000000 0.000000 -0.000000
vn 1.000000 0.000000 -0.000000
vn -0.000000 -1.000000 -0.000000
vn 0.000000 -1.000000 -0.000000
vn 0.258819 -0.965926 -0.000000
vn 0.258819 -0.965926 -0.000000
vn 0.500000 -0.866025 -0.000000
vn 0.500000 -0.866025 -0.000000
vn 0.707107 -0.707107 -0.000000
vn 0.707107 -0.707107 -0.000000
vn 0.866025 -0.500000 -0.000000
vn 0.866025 -0.500000 -0.000000
vn 0.965926 -0.258819 -0.000000
vn 0.965926 -0.258819 -0.000000
vn 0.000000 -1.000000 0.000000
vn 0.000000 -1.000000 0.000000
vn -1.000000 0.000000 -0.000000
vn -1.000000 0.000000 -0.000000
vn -0.965926 -0.258819 0.000000
vn -0.965926 -0.258819 0.000000
vn -0.866025 -0.500000 0.000000
vn -0.866025 -0.500000 0.000000
vn -0.707107 -0.707107 0.000000
vn -0.707107 -0.707107 0.000000
vn -0.500000 -0.866025 0.000000
vn -0.500000 -0.866025 0.000000
vn -0.258819 -0.965926 0.000000
vn -0.258819 -0.965926 0.000000
vn -1.000000 0.000000 0.000000
vn -1.000000 0.000000 0.000000
vn -0.258819 0.965926 -0.000000
vn -0.258819 0.965926 -0.000000
vn -0.500000 0.866025 -0.000000
vn -0.500000 0.866025 -0.000000
vn -0.707107 0.707107 -0.000000
vn -0.707107 0.707107 -0.000000
vn -0.866025 0.500000 -0.000000
vn -0.866025 0.500000 -0.000000
vn -0.965926 0.258819 -0.000000
vn -0.965926 0.258819 -0.000000
vn 0.000000 0.000000 1.000000
vn 0.000000 0.000000 1.000000
vn 0.000000 0.000000 1.000000
vn 0.000000 0.000000 1.000000
vn 0.000000 0.000000 1.000000
vn 0.000000 0.000000 1.000000
vn 0.000000 0.000000 1.000000
vn 0.000000 0.000000 1.000000
vn 0.000000 0.000000 1.000000
vn 0.000000 0.000000 1.000000
vn 0.000000 0.000000 1.000000
vn 0.000000 0.000000 1.000000
vn 0.000000 0.000000 1.000000
vn 0.000000 0.000000 1.000000
vn 0.000000 0.000000 1.000000
vn 0.000000 0.000000 1.000000
vn 0.000000 0.000000 1.000000
vn 0.000000 0.000000 1.000000
vn 0.000000 0.000000 1.000000
vn 0.000000 0.000000 1.000000
vn 0.000000 0.000000 1.000000
vn 0.000000 0.000000 1.000000
vn 0.000000 0.000000 1.000000
vn 0.000000 0.000000 1.000000
vn 0.000000 0.000000 1.000000
vn 0.000000 0.000000 1.000000
vn 0.000000 0.000000 1.000000
vn 0.000000 0.000000 1.000000
vn -0.000000 0.000000 -1.000000
vn -0.000000 0.000000 -1.000000
vn -0.000000 0.000000 -1.000000
vn -0.000000 0.000000 -1.000000
vn -0.000000 0.000000 -1.000000
vn -0.000000 0.000000 -1.000000
vn -0.000000 0.000000 -1.000000
vn -0.000000 0.000000 -1.000000
vn -0.000000 0.000000 -1.000000
vn -0.000000 0.000000 -1.000000
vn -0.000000 0.000000 -1.000000
vn -0.000000 0.000000 -1.000000
vn -0.000000 0.000000 -1.000000
vn -0.000000 0.000000 -1.000000
vn -0.000000 0.000000 -1.000000
vn -0.000000 0.000000 -1.000000
vn -0.000000 0.000000 -1.000000
vn -0.000000 0.000000 -1.000000
vn -0.000000 0.000000 -1.000000
vn -0.000000 0.000000 -1.000000
vn -0.000000 0.000000 -1.000000
vn -0.000000 0.000000 -1.000000
vn -0.000000 0.000000 -1.000000
vn -0.000000 0.000000 -1.000000
vn -0.000000 0.000000 -1.000000
vn -0.000000 0.000000 -1.000000
vn -0.000000 0.000000 -1.000000
vn -0.000000 0.000000 -1.000000
usemtl Steel_-_Satin
f 1/1/1 2/2/2 4/3/3
f 4/3/3 2/2/2 3/4/4
f 16/5/5 5/6/6 15/7/7
f 15/7/7 5/6/6 6/8/8
f 15/7/7 6/8/8 14/9/9
f 14/9/9 6/8/8 7/10/10
f 14/9/9 7/10/10 13/11/11
f 13/11/11 7/10/10 8/12/12
f 13/11/11 8/12/12 12/13/13
f 12/13/13 8/12/12 9/14/14
f 12/13/13 9/14/14 11/15/15
f 11/15/15 9/14/14 10/16/16
f 11/15/15 10/16/16 4/17/3
f 4/17/3 10/16/16 1/18/1
f 17/19/17 5/20/6 18/21/18
f 18/21/18 5/20/6 16/22/5
f 30/23/19 19/24/20 29/25/21
f 29/25/21 19/24/20 20/26/22
f 29/25/21 20/26/22 28/27/23
f 28/27/23 20/26/22 21/28/24
f 28/27/23 21/28/24 27/29/25
f 27/29/25 21/28/24 22/30/26
f 27/29/25 22/30/26 26/31/27
f 26/31/27 22/30/26 23/32/28
f 26/31/27 23/32/28 25/33/29
f 25/33/29 23/32/28 24/34/30
f 25/33/29 24/34/30 18/35/18
f 18/35/18 24/34/30 17/36/17
f 31/37/31 19/38/20 32/39/32
f 32/39/32 19/38/20 30/40/19
f 44/41/33 33/42/34 43/43/35
f 43/43/35 33/42/34 34/44/36
f 43/43/35 34/44/36 42/45/37
f 42/45/37 34/44/36 35/46/38
f 42/45/37 35/46/38 41/47/39
f 41/47/39 35/46/38 36/48/40
f 41/47/39 36/48/40 40/49/41
f 40/49/41 36/48/40 37/50/42
f 40/49/41 37/50/42 39/51/43
f 39/51/43 37/50/42 38/52/44
f 39/51/43 38/52/44 32/53/32
f 32/53/32 38/52/44 31/54/31
f 45/55/45 33/56/34 46/57/46
f 46/57/46 33/56/34 44/58/33
f 3/59/4 2/60/2 56/61/47
f 56/61/47 2/60/2 47/62/48
f 56/61/47 47/62/48 55/63/49
f 55/63/49 47/62/48 48/64/50
f 55/63/49 48/64/50 54/65/51
f 54/65/51 48/64/50 49/66/52
f 54/65/51 49/66/52 53/67/53
f 53/67/53 49/66/52 50/68/54
f 53/67/53 50/68/54 52/69/55
f 52/69/55 50/68/54 51/70/56
f 52/69/55 51/70/56 46/71/46
f 46/71/46 51/70/56 45/72/45
f 56/73/57 55/74/58 3/75/59
f 3/75/59 55/74/58 54/76/60
f 3/75/59 54/76/60 53/77/61
f 53/77/61 52/78/62 3/75/59
f 3/75/59 52/78/62 46/79/63
f 3/75/59 46/79/63 18/80/64
f 18/80/64 46/79/63 30/81/65
f 18/80/64 30/81/65 29/82/66
f 46/79/63 44/83/67 30/81/65
f 30/81/65 44/83/67 32/84/68
f 32/84/68 44/83/67 39/85/69
f 39/85/69 44/83/67 40/86/70
f 40/86/70 44/83/67 41/87/71
f 41/87/71 44/83/67 42/88/72
f 42/88/72 44/83/67 43/89/73
f 29/82/66 28/90/74 18/80/64
f 18/80/64 28/90/74 27/91/75
f 18/80/64 27/91/75 26/92/76
f 26/92/76 25/93/77 18/80/64
f 18/80/64 16/94/78 3/75/59
f 3/75/59 16/94/78 4/95/79
f 4/95/79 16/94/78 15/96/80
f 4/95/79 15/96/80 14/97/81
f 14/97/81 13/98/82 4/95/79
f 4/95/79 13/98/82 12/99/83
f 4/95/79 12/99/83 11/100/84
f 51/101/85 2/102/86 45/103/87
f 45/103/87 2/102/86 1/104/88
f 45/103/87 1/104/88 33/105/89
f 33/105/89 1/104/88 5/106/90
f 33/105/89 5/106/90 31/107/91
f 31/107/91 5/106/90 17/108/92
f 31/107/91 17/108/92 19/109/93
f 19/109/93 17/108/92 20/110/94
f 20/110/94 17/108/92 21/111/95
f 21/111/95 17/108/92 22/112/96
f 22/112/96 17/108/92 23/113/97
f 23/113/97 17/108/92 24/114/98
f 51/101/85 50/115/99 2/102/86
f 2/102/86 50/115/99 49/116/100
f 2/102/86 49/116/100 48/117/101
f 48/117/101 47/118/102 2/102/86
f 10/119/103 9/120/104 1/104/88
f 1/104/88 9/120/104 8/121/105
f 1/104/88 8/121/105 7/122/106
f 7/122/106 6/123/107 1/104/88
f 1/104/88 6/123/107 5/106/90
f 31/107/91 38/124/108 33/105/89
f 33/105/89 38/124/108 37/125/109
f 33/105/89 37/125/109 36/126/110
f 36/126/110 35/127/111 33/105/89
f 33/105/89 35/127/111 34/128/112
# 56 vertices
# 128 texture params
# 112 normals
# 108 facets

# 1 groups
